<?xml version="1.0" encoding="UTF-8"?>
<svg id="Layer_2" data-name="Layer 2" xmlns="http://www.w3.org/2000/svg" viewBox="0 0 249.83 258.28">
  <defs>
    <style>
      .cls-1 {
        fill: none;
        stroke: #231916;
        stroke-miterlimit: 10;
      }
    </style>
  </defs>
  <g id="Layer_1-2" data-name="Layer 1">
    <g id="hua_1" data-name="hua 1">
      <path id="hua" class="cls-1" d="M47.04,88.9c2.1-6.23-24.94-15.46-24.78-30.98.05-5.07,3.21-8.76,9.52-15.94,6.34-7.21,15.81-16.01,35.4-26.91C85.67,4.78,95.14-.35,105.9.61c2.86.26,14.61,1.47,23.93,10.33,15.18,14.41,11.32,37.07,17.35,37.67,5.16.52,6.59-16.34,21.71-25.28.86-.51,8.09-4.68,17.04-5.16,27.02-1.45,48.5,31.95,56.67,52.61,3.9,9.86,7,20.26,2.71,30.52-5.97,14.28-27.33,14.54-28.4,26.33-.42,4.69,2.38,8.96,3.61,10.84,4.07,6.21,9.06,6.78,14.97,11.36,0,0,8.66,6.71,12.39,18.07,4.54,13.81-2.63,27.18-6.87,35.11-3.87,7.23-15.84,29.58-38.56,32.53-2.42.31-16.31,2.11-26.85-6.2-4.96-3.91-4.7-10.65-12.91-18.41-1.79-1.69-3.93-2.61-5.67-1.59-1.59.93-2.18,2.46-1.56,6.58,0,0,2.59,12.34-1.55,22.72-5.57,13.97-27.7,18.65-40.27,19.1-24.5.89-51.32-12.85-57.31-32.01-1.27-4.05-3.27-10.49-1.03-17.55,2.89-9.11,10.7-12.57,9.49-17.64-.49-2.08-1.77-4.81-8.96-4.23-4.35.35-13.07,2.79-23.1.66-17.21-3.65-25.02-20.44-27.51-25.77C-.53,148.86.23,137.8,1.09,125.26c1.01-14.78,1.52-22.16,6.83-27.57,12.17-12.37,37.09-2.76,39.12-8.78h0Z"/>
    </g>
  </g>
</svg>